<svg xmlns="http://www.w3.org/2000/svg" width="1920" height="1920"><defs><linearGradient id="a" x1="280" x2="1200" y1="640" y2="640" gradientUnits="userSpaceOnUse"><stop offset=".27" stop-color="#ff824e"/><stop offset=".74" stop-color="#ffa766"/></linearGradient><linearGradient id="b" x1="481.9" x2="1438.1" y1="607.34" y2="1312.66" gradientUnits="userSpaceOnUse"><stop offset=".18" stop-color="#ff824e"/><stop offset=".82" stop-color="#ff5c35"/></linearGradient></defs><path fill="none" d="M0 0h1920v1920H0z"/><path fill="#ff5c35" d="M960 720a240 240 0 0 0-240 240v640a240 240 0 0 0 437.77 136l440-640a240 240 0 0 0-197-376Z"/><path fill="url(#a)" d="M960 1200a240 240 0 0 0 240-240V320a240 240 0 0 0-437.77-136l-440 640A240 240 0 0 0 520 1200Z"/><circle cx="960" cy="320" r="240" fill="#ff5c35"/><path fill="url(#b)" d="M1400 1200H520a240 240 0 1 1 0-480h880a240 240 0 1 1 0 480Z"/></svg>